# xmcd
#
# Track frame offsets:
#	150
#	15618
#	38839
#	55003
#	70474
#	90070
#	104000
#	121257
#	136705
#	152115
#	169676
#	185314
#	203035
#	217693
#	235416
#	256152
#
# Disc length: 3691 seconds
#
# Revision: 1
# Processed by: cddbd v1.4PL0 Copyright (c) Steve Scherf et al.
# Submitted via: audiograbber 1.80
#
DISCID=c90e6910
DTITLE=Enzo Belmonte - Enzo Belmonte
DYEAR=1900
DGENRE=
TTITLE0=Ti Amo
TTITLE1=Buona Domenica
TTITLE2=Canzone D' Amore
TTITLE3=Dimmi
TTITLE4=Adesso, Sempre
TTITLE5=Azzurramente Insieme
TTITLE6=Se Ritornerai
TTITLE7=Tornero
TTITLE8=Che Sara
TTITLE9=Piccolo Canzone
TTITLE10=Io Ti Cerchero
TTITLE11=Sotto La Luna
TTITLE12=Quando Quando Quando
TTITLE13=Non Contate Su Di Noi
TTITLE14=Grande Immenso Amore
TTITLE15=Gloria
EXTD=
EXTT0=
EXTT1=
EXTT2=
EXTT3=
EXTT4=
EXTT5=
EXTT6=
EXTT7=
EXTT8=
EXTT9=
EXTT10=
EXTT11=
EXTT12=
EXTT13=
EXTT14=
EXTT15=
PLAYORDER=
